<?xml version="1.0" standalone="no"?>
<!DOCTYPE svg PUBLIC "-//W3C//DTD SVG 20010904//EN"
 "http://www.w3.org/TR/2001/REC-SVG-20010904/DTD/svg10.dtd">
<svg version="1.0" xmlns="http://www.w3.org/2000/svg"
 width="261.000000pt" height="261.000000pt" viewBox="0 0 261.000000 261.000000"
 preserveAspectRatio="xMidYMid meet">
<metadata>
Created by potrace 1.14, written by Peter Selinger 2001-2017
</metadata>
<g transform="translate(0.000000,261.000000) scale(0.100000,-0.100000)"
fill="#000000" stroke="none">
<path d="M1134 2306 c-117 -27 -247 -105 -328 -199 -134 -153 -166 -368 -101
-680 28 -132 103 -420 104 -399 1 7 -13 67 -29 133 -84 332 -106 515 -81 666
34 197 184 364 391 433 80 27 213 29 280 6 111 -40 199 -132 239 -249 32 -92
41 -193 41 -460 0 -235 10 -428 25 -511 l7 -36 -77 -35 c-110 -50 -186 -103
-230 -160 l-39 -50 -163 0 -163 0 -10 28 c-18 52 -23 151 -11 209 l12 57 170
3 c147 3 168 1 163 -12 -16 -43 -24 -121 -15 -171 l9 -54 1 78 c1 48 7 92 17
115 l17 37 23 -90 c27 -107 30 -97 8 27 l-17 89 -186 -6 c-149 -6 -188 -10
-198 -22 -17 -22 -26 -93 -21 -158 3 -30 2 -55 0 -55 -3 0 -28 22 -56 48 -91
87 -104 77 -16 -11 47 -47 88 -96 91 -109 5 -21 10 -23 80 -24 41 0 100 -1
132 -2 l57 -2 0 -46 c0 -40 -2 -45 -17 -38 -70 31 -170 4 -213 -57 -42 -58
-36 -160 11 -193 18 -12 18 -14 0 -72 -10 -32 -28 -78 -39 -101 -12 -23 -22
-45 -22 -48 0 -3 31 -5 68 -5 l69 0 -1 148 c-1 139 0 150 25 197 17 35 39 58
72 79 l47 29 18 -23 c12 -15 33 -24 63 -27 54 -6 86 8 99 43 7 18 17 24 40 24
16 0 30 -3 30 -6 0 -4 -13 -22 -30 -40 -55 -63 -75 -190 -56 -356 4 -38 12
-68 18 -68 6 0 7 8 4 17 -4 9 -7 71 -7 137 0 142 16 208 61 251 l30 29 -6 -46
c-8 -56 8 -107 45 -147 26 -28 27 -29 9 -51 -21 -25 -23 -67 -7 -140 7 -31 16
-50 25 -50 17 0 17 6 -1 75 -8 31 -11 63 -8 73 11 30 36 52 60 52 19 0 29 -12
53 -62 16 -35 32 -80 35 -101 l6 -37 75 0 76 0 -7 42 c-9 52 -47 157 -70 192
-16 24 -16 30 0 91 25 102 -1 182 -70 211 -48 20 -75 18 -129 -11 -35 -19 -62
-25 -106 -25 -68 0 -68 -1 -72 110 l-3 65 135 67 135 67 -3 58 c-2 32 -10 127
-18 212 -8 85 -14 258 -14 385 0 264 -10 331 -65 442 -44 91 -130 173 -211
203 -73 28 -182 35 -260 17z m580 -1647 c47 -55 31 -174 -27 -212 -49 -31 -66
-30 -102 6 -31 31 -35 41 -35 86 0 91 43 144 122 150 9 0 28 -13 42 -30z
m-528 -15 c20 -5 19 -9 -20 -48 -41 -41 -66 -100 -66 -155 0 -28 -19 -26 -53
4 -52 49 -24 148 53 187 37 19 52 21 86 12z"/>
<path d="M1287 1856 c-37 -12 -75 -30 -84 -39 -15 -15 -14 -20 8 -62 13 -26
32 -51 42 -56 21 -12 91 17 146 60 35 28 37 32 32 73 -6 41 -8 43 -41 45 -19
1 -66 -8 -103 -21z"/>
<path d="M745 1787 c-10 -38 11 -66 68 -93 67 -31 85 -30 98 4 6 15 16 39 24
54 19 38 6 45 -97 54 l-87 7 -6 -26z"/>
<path d="M961 1606 c-7 -8 -42 -26 -79 -41 -78 -31 -112 -51 -112 -66 0 -8 4
-8 13 -1 16 14 62 -7 62 -28 0 -22 -37 -25 -52 -4 -7 10 -13 13 -13 7 0 -5 9
-18 20 -28 19 -17 23 -17 122 15 126 39 158 55 158 78 0 13 -2 14 -9 3 -8 -12
-130 -61 -153 -61 -4 0 -8 11 -8 25 0 14 -4 25 -10 25 -24 0 -6 21 44 49 65
37 80 38 111 6 15 -14 25 -19 25 -11 0 39 -93 64 -119 32z m-71 -80 c6 -8 10
-25 8 -38 -3 -26 -38 -39 -38 -14 0 9 -9 21 -20 28 -19 12 -19 13 3 25 29 16
32 16 47 -1z"/>
<path d="M1030 1570 c0 -5 5 -10 10 -10 6 0 10 5 10 10 0 6 -4 10 -10 10 -5 0
-10 -4 -10 -10z"/>
<path d="M1125 1365 c-5 -2 -40 -6 -76 -10 l-65 -6 -3 -50 -2 -49 103 0 c57 0
120 3 140 6 33 6 37 9 32 33 -2 14 -6 37 -8 51 -3 23 -7 25 -57 27 -30 1 -58
0 -64 -2z"/>
<path d="M1331 804 c0 -11 3 -14 6 -6 3 7 2 16 -1 19 -3 4 -6 -2 -5 -13z"/>
</g>
</svg>
